<?xml version="1.0" standalone="no"?>
<!DOCTYPE svg PUBLIC "-//W3C//DTD SVG 20010904//EN"
 "http://www.w3.org/TR/2001/REC-SVG-20010904/DTD/svg10.dtd">
<svg version="1.0" xmlns="http://www.w3.org/2000/svg"
 width="512.000000pt" height="512.000000pt" viewBox="0 0 512.000000 512.000000"
 preserveAspectRatio="xMidYMid meet">
<metadata>
Created by potrace 1.14, written by Peter Selinger 2001-2017
</metadata>
<g transform="translate(0.000000,512.000000) scale(0.100000,-0.100000)"
fill="#000000" stroke="none">
<path d="M2518 4695 c-2 -1 -48 -5 -103 -9 -273 -16 -536 -87 -795 -213 -295
-145 -570 -372 -762 -628 -21 -28 -41 -54 -46 -60 -29 -36 -140 -228 -181
-316 -108 -230 -165 -438 -196 -722 -7 -61 -8 -348 -1 -382 2 -11 7 -42 10
-70 23 -160 20 -144 49 -260 152 -599 567 -1112 1122 -1385 224 -110 461 -182
680 -206 33 -3 74 -8 90 -10 38 -5 308 -5 355 0 117 13 166 20 280 42 101 20
318 94 437 149 525 245 941 709 1122 1250 45 134 86 313 96 420 4 39 9 79 11
90 5 26 5 334 0 360 -2 11 -7 49 -11 85 -4 36 -9 74 -11 85 -3 11 -7 36 -10
55 -3 19 -8 38 -10 41 -2 4 -6 24 -10 45 -12 79 -97 313 -159 440 -136 277
-322 512 -560 709 -264 218 -585 373 -913 440 -155 32 -176 35 -317 41 -66 3
-130 6 -142 8 -13 2 -24 2 -25 1z m227 -439 c28 -4 68 -9 90 -12 98 -13 257
-58 372 -105 699 -289 1123 -994 1050 -1749 -13 -131 -30 -217 -69 -340 -229
-721 -895 -1204 -1644 -1194 -148 2 -223 11 -411 50 -47 9 -226 76 -304 113
-301 142 -563 381 -736 671 -28 47 -65 116 -82 154 -33 71 -98 251 -105 289
-2 12 -11 58 -20 102 -31 151 -40 382 -21 522 14 104 17 121 41 215 147 585
581 1043 1149 1216 88 27 127 36 234 57 13 2 56 7 95 11 39 3 72 7 73 8 6 5
243 -2 288 -8z"/>
<path d="M2059 3701 c-54 -54 -34 -144 38 -172 42 -16 71 -10 105 20 29 26 33
35 32 80 0 43 -5 54 -30 76 -43 37 -106 35 -145 -4z"/>
<path d="M2938 3723 c-9 -2 -27 -20 -38 -39 -51 -81 23 -183 115 -160 80 20
103 134 39 185 -25 20 -73 26 -116 14z"/>
<path d="M2076 3193 c-39 -10 -96 -54 -123 -95 -24 -35 -28 -52 -28 -107 1
-43 7 -77 18 -99 72 -134 247 -158 346 -46 42 48 59 97 55 161 -8 125 -141
218 -268 186z"/>
<path d="M2902 3181 c-164 -77 -169 -308 -8 -385 51 -24 127 -27 173 -6 161
72 176 288 28 380 -52 32 -137 37 -193 11z"/>
<path d="M1473 3092 c-12 -2 -36 -16 -53 -32 -25 -23 -30 -36 -30 -72 1 -91
100 -140 168 -83 39 32 50 90 27 134 -8 17 -17 31 -19 31 -2 0 -19 6 -37 13
-19 7 -44 12 -56 9z"/>
<path d="M3569 3075 c-54 -29 -63 -119 -16 -163 76 -71 199 -4 176 96 -15 70
-94 103 -160 67z"/>
<path d="M2076 2339 c-77 -21 -156 -119 -156 -193 0 -125 83 -215 202 -221
192 -11 294 204 167 349 -55 62 -134 86 -213 65z"/>
<path d="M2922 2337 c-48 -15 -119 -81 -133 -125 -23 -68 -16 -134 19 -189
119 -185 394 -98 392 124 -1 38 -32 104 -65 137 -51 51 -146 75 -213 53z"/>
<path d="M1441 2227 c-81 -47 -61 -176 31 -196 101 -23 170 107 94 178 -29 28
-92 36 -125 18z"/>
<path d="M3593 2233 c-29 -6 -73 -58 -73 -88 0 -68 44 -114 108 -115 36 0 49
5 72 30 36 38 41 70 20 117 -23 53 -61 69 -127 56z"/>
<path d="M2075 1581 c-34 -24 -43 -42 -44 -92 -2 -69 67 -118 134 -96 108 37
93 185 -20 202 -30 4 -47 1 -70 -14z"/>
<path d="M2915 1567 c-36 -36 -43 -65 -26 -110 28 -72 118 -92 172 -38 23 24
29 38 29 73 0 61 -33 97 -94 104 -43 6 -49 3 -81 -29z"/>
</g>
</svg>
